<svg width="38" height="32" viewBox="0 0 38 32" fill="none" xmlns="http://www.w3.org/2000/svg">
<path d="M13.4724 7.40244C13.5919 7.16342 13.7804 6.9658 14.0135 6.83521C14.2466 6.70462 14.5136 6.64709 14.7798 6.67008C15.046 6.69308 15.2991 6.79553 15.5064 6.96415C15.7137 7.13278 15.8655 7.35979 15.9421 7.61575L18.9751 17.7279L21.4748 12.7351C21.5856 12.5137 21.7558 12.3275 21.9663 12.1974C22.1769 12.0672 22.4196 11.9983 22.6672 11.9983C22.9147 11.9983 23.1574 12.0672 23.368 12.1974C23.5786 12.3275 23.7488 12.5137 23.8595 12.7351L26.1542 17.3312H34.2166C35.4169 14.8565 36.0259 12.1367 35.9956 9.38637C35.9431 4.21116 31.7911 0 26.74 0C22.733 0 20.0741 2.46137 18.6643 4.24949C17.2578 2.45887 14.5956 0 10.5886 0C5.53756 0 1.38556 4.21116 1.33307 9.38637C1.31149 11.1735 1.56239 12.9534 2.07715 14.6649H9.84121L13.4724 7.40244Z" fill="#485C46"/>
<path d="M24.1379 19.2609L22.6639 16.3129L19.8568 21.9272C19.746 22.1486 19.5758 22.3348 19.3652 22.4648C19.1546 22.5949 18.912 22.6638 18.6644 22.6638C18.6272 22.6638 18.5889 22.6621 18.5494 22.6588C18.2826 22.6367 18.0286 22.5347 17.8205 22.3662C17.6125 22.1976 17.46 21.9704 17.3829 21.7139L14.3499 11.6018L11.8502 16.5945C11.74 16.8148 11.571 17.0002 11.3619 17.1302C11.1527 17.2602 10.9116 17.3298 10.6654 17.3311H3.11213C3.88981 18.9581 4.92496 20.5596 6.21759 22.1355C7.78156 24.042 10.6171 27.0899 17.1654 31.5352C17.607 31.8379 18.1299 31.9999 18.6653 31.9999C19.2006 31.9999 19.7235 31.8379 20.1651 31.5352C26.7135 27.0899 29.5489 24.042 31.1129 22.1355C31.6762 21.4499 32.2046 20.7363 32.6961 19.9975H25.3303C25.0828 19.9975 24.8401 19.9286 24.6295 19.7985C24.4189 19.6684 24.2487 19.4823 24.1379 19.2609ZM35.9957 17.3311H34.2167C33.7735 18.2547 33.2654 19.1458 32.6961 19.9975H35.9957C36.3493 19.9975 36.6884 19.857 36.9384 19.607C37.1884 19.357 37.3288 19.0179 37.3288 18.6643C37.3288 18.3107 37.1884 17.9716 36.9384 17.7216C36.6884 17.4716 36.3493 17.3311 35.9957 17.3311ZM1.33317 14.6648C0.979594 14.6648 0.640496 14.8052 0.390477 15.0552C0.140459 15.3053 0 15.6444 0 15.9979C0 16.3515 0.140459 16.6906 0.390477 16.9406C0.640496 17.1907 0.979594 17.3311 1.33317 17.3311H3.11213C2.69978 16.47 2.35381 15.5786 2.07725 14.6648H1.33317Z" fill="#485C46"/>
</svg>
