<svg width="38" height="32" viewBox="0 0 38 32" fill="none" xmlns="http://www.w3.org/2000/svg">
<path d="M13.4726 7.40244C13.592 7.16342 13.7805 6.9658 14.0136 6.83521C14.2467 6.70462 14.5137 6.64709 14.7799 6.67008C15.0461 6.69308 15.2992 6.79553 15.5065 6.96415C15.7138 7.13278 15.8656 7.35979 15.9423 7.61575L18.9752 17.7279L21.4749 12.7351C21.5857 12.5137 21.7559 12.3275 21.9665 12.1974C22.1771 12.0672 22.4197 11.9983 22.6673 11.9983C22.9148 11.9983 23.1575 12.0672 23.3681 12.1974C23.5787 12.3275 23.7489 12.5137 23.8596 12.7351L26.1544 17.3312H34.2167C35.4171 14.8565 36.026 12.1367 35.9957 9.38637C35.9432 4.21116 31.7912 0 26.7401 0C22.7331 0 20.0743 2.46137 18.6644 4.24949C17.2579 2.45887 14.5958 0 10.5887 0C5.53768 0 1.38568 4.21116 1.33319 9.38637C1.3116 11.1735 1.56251 12.9534 2.07727 14.6649H9.84133L13.4726 7.40244Z" fill="#485C46"/>
<path d="M24.1379 19.2608L22.6639 16.3129L19.8568 21.9272C19.746 22.1485 19.5758 22.3347 19.3652 22.4648C19.1546 22.5949 18.912 22.6638 18.6644 22.6638C18.6272 22.6638 18.5889 22.6621 18.5494 22.6588C18.2826 22.6366 18.0286 22.5346 17.8205 22.3661C17.6125 22.1976 17.46 21.9703 17.3829 21.7139L14.3499 11.6018L11.8502 16.5945C11.74 16.8147 11.571 17.0001 11.3619 17.1301C11.1527 17.2602 10.9116 17.3297 10.6654 17.3311H3.11213C3.88981 18.9581 4.92496 20.5596 6.21759 22.1355C7.78156 24.0419 10.6171 27.0899 17.1654 31.5352C17.607 31.8378 18.1299 31.9998 18.6653 31.9998C19.2006 31.9998 19.7235 31.8378 20.1651 31.5352C26.7135 27.0899 29.5489 24.0419 31.1129 22.1355C31.6762 21.4498 32.2046 20.7362 32.6961 19.9974H25.3303C25.0828 19.9974 24.8401 19.9285 24.6295 19.7984C24.4189 19.6684 24.2487 19.4822 24.1379 19.2608ZM35.9957 17.3311L34.2167 17.3312C33.7735 18.2549 33.2654 19.1457 32.6961 19.9974H35.9957C36.3492 19.9974 36.6884 19.857 36.9384 19.6069C37.1884 19.3569 37.3288 19.0178 37.3288 18.6642C37.3288 18.3107 37.1884 17.9716 36.9384 17.7215C36.6884 17.4715 36.3492 17.3311 35.9957 17.3311ZM1.33317 14.6647C0.979594 14.6647 0.640496 14.8052 0.390477 15.0552C0.140459 15.3052 0 15.6443 0 15.9979C0 16.3515 0.140459 16.6906 0.390477 16.9406C0.640496 17.1906 0.979594 17.3311 1.33317 17.3311H3.11213C2.69978 16.4699 2.35383 15.5787 2.07727 14.6649L1.33317 14.6647Z" fill="#485C46"/>
</svg>
