<svg width="16" height="16" viewBox="0 0 16 16" fill="none" xmlns="http://www.w3.org/2000/svg">
<path d="M8 0C6.41775 0 4.87103 0.469192 3.55544 1.34824C2.23985 2.22729 1.21447 3.47672 0.608967 4.93853C0.00346628 6.40034 -0.15496 8.00887 0.153721 9.56072C0.462403 11.1126 1.22433 12.538 2.34315 13.6569C3.46197 14.7757 4.88743 15.5376 6.43928 15.8463C7.99113 16.155 9.59966 15.9965 11.0615 15.391C12.5233 14.7855 13.7727 13.7602 14.6518 12.4446C15.5308 11.129 16 9.58225 16 8C15.9978 5.87895 15.1542 3.84542 13.6544 2.34562C12.1546 0.845814 10.121 0.00223986 8 0ZM8 14.7692C6.66117 14.7692 5.35241 14.3722 4.23922 13.6284C3.12603 12.8846 2.2584 11.8274 1.74605 10.5905C1.2337 9.35356 1.09965 7.99249 1.36084 6.67939C1.62203 5.36629 2.26674 4.16012 3.21343 3.21343C4.16013 2.26674 5.36629 1.62203 6.67939 1.36084C7.99249 1.09965 9.35356 1.2337 10.5905 1.74605C11.8274 2.25839 12.8846 3.12602 13.6284 4.23922C14.3722 5.35241 14.7692 6.66117 14.7692 8C14.7672 9.79468 14.0534 11.5153 12.7843 12.7843C11.5153 14.0534 9.79469 14.7672 8 14.7692ZM10.2815 7.56461C10.3388 7.62177 10.3841 7.68964 10.4151 7.76434C10.4461 7.83905 10.462 7.91913 10.462 8C10.462 8.08087 10.4461 8.16095 10.4151 8.23565C10.3841 8.31036 10.3388 8.37823 10.2815 8.43538L7.20462 11.5123C7.14744 11.5695 7.07956 11.6148 7.00486 11.6458C6.93016 11.6767 6.85009 11.6926 6.76923 11.6926C6.68837 11.6926 6.60831 11.6767 6.5336 11.6458C6.4589 11.6148 6.39102 11.5695 6.33385 11.5123C6.27667 11.4551 6.23132 11.3873 6.20038 11.3125C6.16943 11.2378 6.15351 11.1578 6.15351 11.0769C6.15351 10.9961 6.16943 10.916 6.20038 10.8413C6.23132 10.7666 6.27667 10.6987 6.33385 10.6415L8.97616 8L6.33385 5.35846C6.21838 5.24299 6.15351 5.08638 6.15351 4.92308C6.15351 4.75977 6.21838 4.60316 6.33385 4.48769C6.44932 4.37222 6.60593 4.30735 6.76923 4.30735C6.93253 4.30735 7.08915 4.37222 7.20462 4.48769L10.2815 7.56461Z" fill="#343A40"/>
</svg>
