<svg width="16" height="16" viewBox="0 0 16 16" fill="none" xmlns="http://www.w3.org/2000/svg">
<path d="M14.4516 8C14.4516 4.43676 11.5632 1.54839 8 1.54839C4.43676 1.54839 1.54839 4.43676 1.54839 8C1.54839 11.5632 4.43676 14.4516 8 14.4516C11.5632 14.4516 14.4516 11.5632 14.4516 8ZM16 8C16 12.4184 12.4184 16 8 16C3.58161 16 0 12.4184 0 8C0 3.58161 3.58161 0 8 0C12.4184 0 16 3.58161 16 8Z" fill="black"/>
<path d="M10.7038 6.36884C11.0061 6.06654 11.4962 6.0666 11.7986 6.36884C12.1009 6.67119 12.1009 7.16126 11.7986 7.4636L8.54759 10.7156C8.24538 11.0178 7.75521 11.0176 7.45283 10.7156L4.20082 7.4636C3.89848 7.16126 3.89848 6.67119 4.20082 6.36884C4.50316 6.0665 4.99323 6.0665 5.29558 6.36884L7.9992 9.07247L10.7038 6.36884Z" fill="black"/>
</svg>
