<svg width="14" height="15" viewBox="0 0 14 15" fill="none" xmlns="http://www.w3.org/2000/svg">
<path fill-rule="evenodd" clip-rule="evenodd" d="M0 0.833333C0 0.61232 0.0877975 0.400358 0.244078 0.244078C0.400358 0.0877973 0.61232 3.53415e-10 0.833333 3.53415e-10H2.08333C2.27483 -5.57452e-06 2.46049 0.0659438 2.60908 0.186753C2.75766 0.307563 2.8601 0.475861 2.89917 0.663333L3.2825 2.5H12.5C12.6239 2.5 12.7462 2.5276 12.858 2.58081C12.9699 2.63402 13.0684 2.7115 13.1466 2.8076C13.2247 2.9037 13.2805 3.01601 13.3097 3.13636C13.339 3.25671 13.3411 3.38208 13.3158 3.50333L12.2742 8.50333C12.2351 8.69081 12.1327 8.8591 11.9841 8.97991C11.8355 9.10072 11.6498 9.16667 11.4583 9.16667H4.67083L4.84417 10H10.8333C11.364 10.0003 11.8808 10.1694 12.3089 10.4829C12.737 10.7963 13.0543 11.2379 13.2149 11.7437C13.3754 12.2494 13.3708 12.7932 13.2019 13.2962C13.0329 13.7992 12.7082 14.2354 12.2749 14.5416C11.8415 14.8479 11.322 15.0083 10.7914 14.9997C10.2608 14.991 9.74679 14.8138 9.32362 14.4937C8.90046 14.1735 8.59014 13.727 8.43758 13.2188C8.28502 12.7105 8.29812 12.167 8.475 11.6667H6.525C6.68722 12.1264 6.71147 12.6236 6.59477 13.0969C6.47807 13.5703 6.22551 13.9992 5.86818 14.3309C5.51085 14.6625 5.06434 14.8825 4.58361 14.9636C4.10288 15.0448 3.60891 14.9836 3.1625 14.7876C2.71609 14.5917 2.33673 14.2694 2.0711 13.8606C1.80547 13.4518 1.66518 12.9742 1.66748 12.4867C1.66978 11.9992 1.81458 11.523 2.08406 11.1167C2.35354 10.7104 2.73593 10.3918 3.18417 10.2L1.405 1.66667H0.833333C0.61232 1.66667 0.400358 1.57887 0.244078 1.42259C0.0877975 1.26631 0 1.05435 0 0.833333Z" fill="white"/>
</svg>
