<svg width="17" height="17" viewBox="0 0 17 17" fill="none" xmlns="http://www.w3.org/2000/svg">
<path d="M8.33333 0C12.9358 0 16.6667 3.73083 16.6667 8.33333C16.6667 12.9358 12.9358 16.6667 8.33333 16.6667C3.73083 16.6667 0 12.9358 0 8.33333C0 3.73083 3.73083 0 8.33333 0ZM8.33333 1.66667C6.56522 1.66667 4.86953 2.36905 3.61929 3.61929C2.36905 4.86953 1.66667 6.56522 1.66667 8.33333C1.66667 10.1014 2.36905 11.7971 3.61929 13.0474C4.86953 14.2976 6.56522 15 8.33333 15C10.1014 15 11.7971 14.2976 13.0474 13.0474C14.2976 11.7971 15 10.1014 15 8.33333C15 6.56522 14.2976 4.86953 13.0474 3.61929C11.7971 2.36905 10.1014 1.66667 8.33333 1.66667ZM8.33333 4.16667C8.92443 4.16658 9.50878 4.29226 10.0476 4.53537C10.5864 4.77847 11.0673 5.13343 11.4583 5.57667C11.6046 5.74243 11.6791 5.95952 11.6654 6.18019C11.6516 6.40085 11.5508 6.60702 11.385 6.75333C11.2192 6.89964 11.0021 6.97411 10.7815 6.96036C10.5608 6.94661 10.3546 6.84576 10.2083 6.68C9.87249 6.29908 9.42859 6.02947 8.93574 5.90705C8.44288 5.78464 7.92443 5.81522 7.44938 5.99473C6.97433 6.17425 6.56522 6.49418 6.27649 6.91194C5.98776 7.32971 5.8331 7.8255 5.8331 8.33333C5.8331 8.84117 5.98776 9.33696 6.27649 9.75472C6.56522 10.1725 6.97433 10.4924 7.44938 10.6719C7.92443 10.8514 8.44288 10.882 8.93574 10.7596C9.42859 10.6372 9.87249 10.3676 10.2083 9.98666C10.3546 9.8209 10.5608 9.72006 10.7815 9.7063C11.0021 9.69255 11.2192 9.76702 11.385 9.91333C11.5508 10.0596 11.6516 10.2658 11.6654 10.4865C11.6791 10.7071 11.6046 10.9242 11.4583 11.09C10.9977 11.612 10.4137 12.0104 9.75947 12.2485C9.10529 12.4867 8.40185 12.5572 7.71342 12.4535C7.02499 12.3499 6.37351 12.0753 5.81849 11.655C5.26348 11.2347 4.82263 10.6821 4.53621 10.0475C4.24979 9.41297 4.12694 8.71676 4.17887 8.02251C4.23081 7.32825 4.45587 6.65807 4.83351 6.0732C5.21115 5.48832 5.72933 5.0074 6.34069 4.67435C6.95206 4.34131 7.63714 4.16677 8.33333 4.16667Z" fill="#485C46"/>
</svg>
