<svg width="88" height="88" viewBox="0 0 88 88" fill="none" xmlns="http://www.w3.org/2000/svg">
<path d="M34.9717 76.4308C35.9105 74.741 38.0417 74.1327 39.7315 75.0714L48.9629 80.2003H68.3946C68.3934 80.2003 68.3989 80.1996 68.4102 80.1993C68.4329 80.1987 68.479 80.1973 68.545 80.1935C68.6789 80.1858 68.8886 80.1696 69.1465 80.1349C69.6806 80.0631 70.3307 79.925 70.9317 79.6827C71.5394 79.4377 71.9391 79.15 72.1719 78.8683C72.3546 78.6471 72.5635 78.2851 72.5635 77.5333C72.5635 76.6242 72.1378 75.6176 70.9424 74.4581C69.7275 73.2797 67.9712 72.2063 65.9961 71.2882C64.053 70.3849 62.0781 69.7141 60.5694 69.2667C59.8208 69.0447 59.2001 68.8815 58.7735 68.7755C58.5605 68.7226 58.3966 68.6837 58.2901 68.6593C58.2371 68.6471 58.1983 68.6391 58.1749 68.6339L58.1514 68.628C57.0753 68.3993 56.1691 67.6784 55.7051 66.6808L51.8819 58.4601C51.0671 56.7074 51.8275 54.6257 53.5801 53.8106C55.3328 52.9956 57.4145 53.7562 58.2295 55.5089L61.3467 62.212C61.7072 62.3093 62.1144 62.4231 62.5586 62.5548C64.2719 63.0628 66.5935 63.8468 68.9463 64.9405C71.2674 66.0195 73.8083 67.486 75.8155 69.4327C77.8419 71.3982 79.5635 74.1029 79.5635 77.5333C79.5635 79.8642 78.8181 81.8151 77.5674 83.3282C76.3667 84.7808 74.8536 85.6492 73.5499 86.1749C72.2395 86.7033 70.9785 86.9515 70.0791 87.0724C69.6205 87.134 69.2325 87.1654 68.9483 87.1817C68.8057 87.19 68.687 87.195 68.5977 87.1974C68.5532 87.1986 68.5154 87.1989 68.4854 87.1993C68.4705 87.1995 68.4575 87.2002 68.4463 87.2003H68.4209C68.4195 87.2001 68.418 87.1706 68.418 83.7003V87.2003H48.0567C47.4619 87.2003 46.8764 87.0487 46.3565 86.7599L36.3311 81.1905C34.6415 80.2517 34.033 78.1205 34.9717 76.4308Z" fill="#485C46"/>
<path d="M48.4051 67.381C50.0359 66.3432 52.1993 66.8234 53.2371 68.4542C54.2748 70.085 53.7937 72.2485 52.1629 73.2862L39.91 81.0831C39.8513 81.1204 39.792 81.1568 39.7313 81.1905L29.7059 86.7599C29.1861 87.0486 28.6012 87.2002 28.0067 87.2003H18.783V83.7003C18.783 87.2 18.7815 87.2003 18.7801 87.2003H18.7557C18.7444 87.2002 18.7307 87.1995 18.7156 87.1993C18.6856 87.1989 18.6479 87.1986 18.6033 87.1974C18.5141 87.195 18.3962 87.19 18.2537 87.1817C17.9695 87.1654 17.5807 87.134 17.1219 87.0724C16.2225 86.9515 14.9614 86.7033 13.6512 86.1749C12.3475 85.6492 10.8352 84.7807 9.63458 83.3282C8.3838 81.815 7.63751 79.8644 7.63751 77.5333C7.63758 74.1026 9.35973 71.3981 11.3865 69.4327C13.3942 67.4859 15.9359 66.0195 18.2576 64.9405C20.611 63.8468 22.9326 63.0628 24.6463 62.5548C25.0902 62.4232 25.497 62.3092 25.8572 62.212L28.9715 55.5099C29.7859 53.7569 31.8669 52.9964 33.6199 53.8106C35.3729 54.625 36.1344 56.7061 35.3201 58.4591L31.5018 66.6798C31.038 67.6781 30.1312 68.4003 29.0545 68.629C29.0506 68.6298 29.0427 68.6313 29.0311 68.6339C29.0077 68.639 28.9689 68.6471 28.9158 68.6593C28.8093 68.6837 28.6453 68.7226 28.4324 68.7755C28.0057 68.8815 27.3844 69.0447 26.6356 69.2667C25.1265 69.7141 23.1514 70.385 21.2078 71.2882C19.2321 72.2064 17.4749 73.2796 16.2596 74.4581C15.0636 75.6179 14.6376 76.6245 14.6375 77.5333C14.6375 78.2854 14.8473 78.6471 15.0301 78.8683C15.2629 79.15 15.6617 79.4377 16.2694 79.6827C16.8702 79.925 17.5204 80.0631 18.0545 80.1349C18.3125 80.1696 18.5221 80.1858 18.6561 80.1935C18.7225 80.1973 18.7691 80.1987 18.7918 80.1993C18.8 80.1995 18.8049 80.2003 18.8065 80.2003H27.0994L36.2332 75.1251L48.4051 67.381Z" fill="#485C46"/>
<path d="M44.9832 26.7324C45.7622 26.7325 46.7682 26.7705 47.9353 26.9229C50.2725 27.2279 53.2478 27.9916 56.3552 29.8164C62.3985 33.3653 68.2906 40.5275 71.4246 54.2979C73.82 55.058 76.6212 55.8058 79.0545 56.4102C80.58 56.7891 81.9307 57.1058 82.8992 57.3271C83.383 57.4377 83.7706 57.5243 84.0359 57.583C84.1684 57.6124 84.2705 57.6345 84.3386 57.6494C84.3724 57.6568 84.3981 57.6624 84.4148 57.666C84.423 57.6678 84.4295 57.6691 84.4334 57.6699C84.435 57.6703 84.4364 57.6707 84.4373 57.6709C86.3269 58.0783 87.5292 59.9405 87.1218 61.8301C86.7145 63.7196 84.8522 64.921 82.9627 64.5137H82.9607C82.9592 64.5133 82.9565 64.5123 82.9539 64.5117C82.9486 64.5106 82.9411 64.5089 82.9314 64.5068C82.9117 64.5026 82.8827 64.4964 82.8455 64.4883C82.771 64.472 82.6618 64.4479 82.5222 64.417C82.2431 64.3552 81.8401 64.2657 81.3396 64.1514C80.3389 63.9227 78.9444 63.5959 77.367 63.2041C74.2454 62.4287 70.2831 61.3674 67.2439 60.2803C66.0859 59.866 65.2302 58.8741 64.99 57.668C62.2667 43.9813 56.981 38.3018 52.8103 35.8525C48.5207 33.3336 44.7531 33.7646 43.6003 33.7646C42.4471 33.7646 38.6796 33.3337 34.3904 35.8525C30.2197 38.3019 24.9349 43.9817 22.2117 57.668C21.9717 58.8733 21.1167 59.8646 19.9597 60.2793C16.9191 61.3693 12.9555 62.4312 9.83375 63.2061C8.25636 63.5976 6.86189 63.923 5.86109 64.1514C5.36027 64.2656 4.95673 64.3563 4.6775 64.418C4.53789 64.4488 4.42877 64.472 4.35426 64.4883C4.31744 64.4963 4.289 64.5026 4.2693 64.5068C4.25941 64.509 4.25122 64.5115 4.24586 64.5127C4.24345 64.5132 4.24146 64.5134 4.24 64.5137H4.23707C2.3473 64.9202 0.48539 63.7179 0.0788656 61.8281C-0.327357 59.9385 0.875781 58.0774 2.76539 57.6709C2.76617 57.6707 2.76745 57.6703 2.7693 57.6699C2.77316 57.6691 2.77949 57.6678 2.78785 57.666C2.80454 57.6624 2.83006 57.6568 2.86402 57.6494C2.93213 57.6346 3.03421 57.6123 3.16676 57.583C3.43204 57.5244 3.8197 57.4375 4.30347 57.3271C5.27189 57.1062 6.62275 56.7907 8.1482 56.4121C10.5812 55.8082 13.3808 55.0596 15.7752 54.2988C18.909 40.5276 24.803 33.3654 30.8464 29.8164C33.9539 27.9916 36.9292 27.2279 39.2664 26.9229C40.4335 26.7705 41.4395 26.7325 42.2185 26.7324C42.6073 26.7324 42.9379 26.7423 43.1902 26.751C43.3588 26.7568 43.3769 26.7577 43.4959 26.7617C43.567 26.7641 43.5952 26.7646 43.6003 26.7646C43.5982 26.7646 43.6229 26.7645 43.7058 26.7617C43.8248 26.7577 43.8427 26.7568 44.0115 26.751C44.2637 26.7423 44.5944 26.7324 44.9832 26.7324ZM49.0115 12.4111C49.0115 10.976 48.4413 9.59974 47.4265 8.58496C46.4118 7.5703 45.0354 7 43.6003 7C42.1654 7.0001 40.7889 7.57027 39.7742 8.58496C38.7595 9.59972 38.1892 10.9761 38.1892 12.4111C38.1892 13.8462 38.7595 15.2225 39.7742 16.2373C40.7889 17.252 42.1654 17.8222 43.6003 17.8223C45.0354 17.8223 46.4118 17.252 47.4265 16.2373C48.4413 15.2225 49.0115 13.8462 49.0115 12.4111ZM56.0115 12.4111C56.0115 15.7028 54.7042 18.86 52.3767 21.1875C50.0492 23.5149 46.8919 24.8223 43.6003 24.8223C40.309 24.8222 37.1524 23.5148 34.825 21.1875C32.4974 18.86 31.1892 15.7028 31.1892 12.4111C31.1892 9.1195 32.4974 5.9623 34.825 3.63477C37.1524 1.3075 40.309 0.000103038 43.6003 0C46.8919 0 50.0492 1.30734 52.3767 3.63477C54.7043 5.9623 56.0115 9.1195 56.0115 12.4111Z" fill="#485C46"/>
</svg>
