<svg width="108" height="88" viewBox="0 0 108 88" fill="none" xmlns="http://www.w3.org/2000/svg">
<path d="M30.0752 43.5996V27.0498H18.5371C16.2495 27.0498 14.3587 27.0515 12.8145 26.9463C11.2391 26.839 9.76928 26.6086 8.35156 26.0215C6.70951 25.3418 5.21759 24.3455 3.96094 23.0889C2.70457 21.8325 1.70801 20.3409 1.02832 18.6992L0.921877 18.4326C0.412352 17.0973 0.20416 15.7132 0.103517 14.2363C-0.0017024 12.6919 1.57936e-06 10.8006 1.68696e-06 8.5127V3.5C1.68696e-06 1.567 1.56701 0 3.5 0C5.433 0 7 1.567 7 3.5V8.5127C7 10.896 7.00169 12.5086 7.08692 13.7598C7.17005 14.98 7.32043 15.5987 7.49512 16.0205C7.82304 16.8127 8.30487 17.5334 8.91113 18.1396C9.51732 18.7457 10.2373 19.2268 11.0293 19.5547L11.1982 19.6191C11.6158 19.7661 12.2227 19.8902 13.29 19.9629C13.8024 19.9978 14.3754 20.0158 15.0371 20.0283V16.0312C15.0371 13.109 16.1984 10.3066 18.2647 8.24023C20.2019 6.30299 22.7864 5.1615 25.5098 5.02637L26.0566 5.0127H68.6621C73.2898 5.0127 77.112 5.00529 80.1289 5.41113C83.2471 5.83061 86.0232 6.74791 88.25 8.97461C90.4768 11.2014 91.395 13.9775 91.8145 17.0957C91.9363 18.0015 92.0194 18.9802 92.0781 20.0312C92.7972 20.019 93.4131 20.0001 93.96 19.9629C95.1802 19.8798 95.7989 19.7294 96.2207 19.5547L96.5146 19.4238C97.1912 19.1039 97.8085 18.6699 98.3389 18.1396C98.9451 17.5334 99.426 16.8127 99.7539 16.0205C99.9286 15.5987 100.08 14.98 100.163 13.7598C100.248 12.5086 100.25 10.896 100.25 8.5127V3.5C100.25 1.567 101.817 0 103.75 0C105.683 0 107.25 1.567 107.25 3.5V8.5127C107.25 10.8006 107.252 12.6919 107.146 14.2363C107.039 15.8117 106.809 17.2815 106.222 18.6992C105.542 20.3409 104.545 21.8325 103.289 23.0889C102.032 24.3455 100.54 25.3427 98.8984 26.0225C97.4807 26.6096 96.0109 26.839 94.4355 26.9463C93.7612 26.9922 93.0207 27.0151 92.21 27.0293C92.2104 27.5301 92.2129 28.0412 92.2129 28.5625V43.5996C92.2129 48.2273 92.2203 52.0495 91.8145 55.0664C91.395 58.1847 90.4768 60.9607 88.25 63.1875C86.5251 64.9124 84.4703 65.8491 82.1826 66.3799C82.1711 69.8025 82.1121 72.7144 81.7891 75.1162C81.3696 78.2345 80.4515 81.0105 78.2246 83.2373C75.9979 85.464 73.2225 86.3823 70.1045 86.8018C67.0876 87.2076 63.2654 87.2002 58.6377 87.2002H38.5879C33.9602 87.2002 30.138 87.2076 27.1211 86.8018C24.0028 86.3823 21.2268 85.4641 19 83.2373C16.7732 81.0105 15.855 78.2344 15.4355 75.1162C15.0298 72.0995 15.0371 68.2778 15.0371 63.6504V38.5879C15.0371 36.655 16.6043 35.0881 18.5371 35.0879C20.4701 35.0879 22.0371 36.6549 22.0371 38.5879V63.6504C22.0371 68.476 22.0446 71.742 22.373 74.1836C22.6879 76.5237 23.2388 77.5776 23.9492 78.2881C24.6597 78.9986 25.7143 79.5494 28.0547 79.8643C30.4963 80.1927 33.7624 80.2002 38.5879 80.2002H58.6377C63.4634 80.2002 66.7292 80.1927 69.1709 79.8643C71.5111 79.5494 72.5649 78.9985 73.2754 78.2881C73.9858 77.5776 74.5367 76.5237 74.8516 74.1836C75.095 72.3737 75.1613 70.1108 75.1797 67.0957C73.2215 67.1495 71.0488 67.1504 68.6621 67.1504H53.625C48.9972 67.1504 45.1751 67.1578 42.1582 66.752C39.04 66.3325 36.2639 65.4143 34.0371 63.1875C31.8104 60.9607 30.8931 58.1846 30.4736 55.0664C30.0678 52.0495 30.0752 48.2273 30.0752 43.5996ZM22.0371 20.0498H30.0752V16.0312C30.0752 14.9654 29.6511 13.9431 28.8975 13.1895C28.1439 12.4361 27.1222 12.0128 26.0566 12.0127C24.9909 12.0127 23.9685 12.4359 23.2148 13.1895C22.4612 13.9431 22.0371 14.9654 22.0371 16.0312V20.0498ZM37.0752 43.5996C37.0752 48.4251 37.0827 51.6912 37.4111 54.1328C37.726 56.4732 38.2768 57.5278 38.9873 58.2383C39.6978 58.9486 40.7518 59.4997 43.0918 59.8145C45.5335 60.1429 48.7993 60.1504 53.625 60.1504H68.6621C73.4876 60.1504 76.7537 60.1429 79.1953 59.8145C81.5357 59.4996 82.5903 58.9488 83.3008 58.2383C84.0113 57.5278 84.5621 56.4732 84.877 54.1328C85.2054 51.6912 85.2129 48.4251 85.2129 43.5996V28.5625C85.2129 23.7368 85.2054 20.471 84.877 18.0293C84.5622 15.6893 84.0111 14.6353 83.3008 13.9248C82.5903 13.2143 81.5357 12.6635 79.1953 12.3486C76.7537 12.0202 73.4876 12.0127 68.6621 12.0127H36.3125C36.8096 13.2814 37.0752 14.6422 37.0752 16.0312V43.5996Z" fill="#485C46"/>
</svg>
