<svg width="122" height="88" viewBox="0 0 122 88" fill="none" xmlns="http://www.w3.org/2000/svg">
<path d="M69.9594 0.00015545C75.7763 -0.0187013 81.4699 1.67839 86.3266 4.88004C91.035 7.98394 94.7543 12.3673 97.0503 17.5099L97.268 18.0099L97.2719 18.0207C99.3507 22.9613 99.6424 29.415 95.8569 34.3322L95.854 34.3371C94.8405 35.6488 93.6622 36.8046 92.3286 37.799C92.288 37.8292 92.2464 37.8584 92.2046 37.8869L54.2046 63.7267C52.6062 64.8135 50.4293 64.3991 49.3422 62.8009C48.2553 61.2025 48.6696 59.0246 50.268 57.9377L88.184 32.1554C88.9949 31.5454 89.703 30.8485 90.3139 30.0578C92.0814 27.7575 92.2684 24.1785 90.8198 20.7355C89.0831 16.6505 86.1803 13.167 82.4741 10.7238C78.7645 8.2784 74.4151 6.98281 69.9721 6.99918H69.9594C65.316 6.99918 61.0122 8.37737 57.434 10.7345L16.936 39.3351C15.3571 40.45 13.1731 40.0741 12.0581 38.4953C10.9432 36.9163 11.32 34.7324 12.8989 33.6173L53.4536 4.97672L53.5424 4.91617C58.2378 1.81189 63.8853 0.00263977 69.9467 0.00015545C69.9493 0.000145894 69.9519 0.000164318 69.9546 0.00015545C69.9561 0.00015521 69.9579 0.00015545 69.9594 0.00015545Z" fill="#485C46"/>
<path d="M14.5717 32.3993C19.5301 29.1622 27.3997 27.835 35.0063 29.3055C42.84 30.82 50.8547 35.3874 55.5385 44.5067C57.8496 49.0065 58.5859 53.1405 57.9018 56.8319C57.2151 60.536 55.1766 63.3697 52.727 65.3944C50.3079 67.3937 47.4327 68.6604 44.7885 69.3446C42.2048 70.0131 39.4754 70.2179 37.309 69.7274H37.3061C25.5272 67.0488 22.8969 57.117 22.8969 52.2225C22.8971 50.2897 24.464 48.7225 26.3969 48.7225C28.3296 48.7226 29.8966 50.2898 29.8969 52.2225C29.8969 55.301 31.493 61.2241 38.8539 62.9002C39.5716 63.0627 41.1056 63.0676 43.0356 62.5682C44.9048 62.0845 46.7946 61.2157 48.267 59.9989C49.7088 58.8073 50.6875 57.3436 51.019 55.5555C51.3527 53.7544 51.1077 51.2003 49.3119 47.7039C45.7815 40.8306 39.7995 37.3611 33.6781 36.1776C27.395 34.9629 21.4224 36.2429 18.3246 38.3065C18.2827 38.3344 18.2398 38.3614 18.1967 38.3875C16.1578 39.6218 12.9331 42.3384 10.4613 46.1248C8.09339 49.7522 6.53719 54.1616 7.12442 59.1024L7.1879 59.5819L7.21134 59.787C7.48505 62.96 8.91795 67.9616 12.2963 72.1991C15.5714 76.307 20.741 79.7985 28.8842 80.1991H85.2943C87.7393 80 88.8371 79.7422 89.7104 79.3592C90.6658 78.9401 91.5802 78.2838 93.599 76.7381C98.939 71.9363 107.802 63.1647 112.927 57.4247L112.931 57.4198C113.553 56.7255 113.952 56.2828 114.251 55.8348C114.522 55.4308 114.561 55.2325 114.569 55.1532C114.632 54.4507 114.533 54.1219 114.486 54.0086C114.452 53.926 114.404 53.8456 114.24 53.7313C113.752 53.3923 112.64 53.0339 110.469 52.8983C108.389 52.7684 105.979 52.8644 103.219 52.9413C100.563 53.0152 97.6248 53.0674 94.8774 52.7694C92.9557 52.5609 91.5665 50.8345 91.7748 48.9129C91.9833 46.9912 93.7105 45.6019 95.6322 45.8104C97.8481 46.0508 100.346 46.0188 103.024 45.9442C105.599 45.8725 108.424 45.757 110.906 45.912C113.297 46.0613 116.077 46.4842 118.235 47.9842C119.393 48.7894 120.358 49.8935 120.953 51.3289C121.534 52.7335 121.681 54.2551 121.538 55.8026L121.538 55.8123C121.247 58.8777 119.051 61.0782 118.148 62.0858L118.149 62.0868C112.8 68.0771 103.673 77.1041 98.1762 82.037C98.1091 82.0972 98.0398 82.155 97.9682 82.2098C96.0434 83.6849 94.419 84.9373 92.5219 85.7694C90.5398 86.6388 88.4743 86.9706 85.724 87.1883C85.6323 87.1956 85.5397 87.1991 85.4477 87.1991H28.7856C28.7307 87.1991 28.6753 87.1977 28.6205 87.1952C18.2998 86.7094 11.2818 82.1554 6.82267 76.5623C2.49152 71.1297 0.640604 64.8165 0.247471 60.4881C-0.775009 53.278 1.50652 47.0362 4.59903 42.2987C7.67925 37.5802 11.6901 34.1436 14.5717 32.3993Z" fill="#485C46"/>
</svg>
