<svg width="87" height="90" viewBox="0 0 87 90" fill="none" xmlns="http://www.w3.org/2000/svg">
<path d="M3.84864 37.3086C11.4058 38.0643 17.9439 39.4514 23.3945 41.5312C28.9192 43.6394 33.5371 46.6721 37.1348 50.6846C40.7345 54.6995 43.2581 59.6468 44.7783 65.4141C46.2777 71.1026 46.9963 77.818 46.999 85.501L47.001 89.4775L43.0566 88.9736C36.4527 88.1306 30.4617 86.4336 25.126 83.8379C19.7933 81.2436 15.2244 77.83 11.4609 73.5898C7.70682 69.3603 4.85795 64.4694 2.90723 58.9521C0.949503 53.4149 -0.0028133 47.3475 6.24224e-06 40.7891L0.00195937 36.9238L3.84864 37.3086ZM86.999 40.7686C87.0702 52.0057 84.0501 61.8759 77.8301 70.2051C71.6184 78.5231 63.1122 84.1971 52.4893 87.2607L48.1494 88.5127L48.0205 83.998C47.89 79.4307 47.5493 75.2354 47.0039 71.4072C46.4657 67.6295 45.6274 64.0848 44.4971 60.7666L43.9834 59.2588L44.7832 57.8809C48.2241 51.951 52.9674 47.1278 58.9541 43.4277C65.1786 39.5808 73.4214 37.6388 83.377 37.293L86.9756 37.168L86.999 40.7686ZM7.13477 44.749C7.43349 49.0592 8.23114 53.0099 9.50684 56.6182C11.1704 61.3235 13.5694 65.4204 16.6963 68.9434C19.8138 72.4557 23.6301 75.3254 28.1885 77.543C31.6893 79.2461 35.5939 80.5293 39.919 81.3789C39.7046 75.8921 39.058 71.1752 38.0098 67.1982C36.7283 62.3366 34.6748 58.4267 31.9229 55.3574C29.169 52.2861 25.5318 49.8393 20.8984 48.0713C17.0957 46.6203 12.5197 45.502 7.13477 44.749ZM79.8916 44.5078C72.4608 45.1338 66.7734 46.8242 62.6348 49.3818C58.048 52.2166 54.3958 55.7809 51.6348 60.0869C52.6553 63.3763 53.4209 66.8217 53.9336 70.4199C54.3248 73.1656 54.6112 76.0594 54.8018 79.0986C62.0569 76.2659 67.8287 71.8993 72.2217 66.0166C76.7702 59.9256 79.3504 52.7944 79.8916 44.5078ZM46.1289 2.99219C48.1939 5.34203 50.122 7.92625 51.916 10.7383C53.7089 13.5484 55.3056 16.4808 56.7061 19.5342C58.1009 22.5755 59.2901 25.6714 60.2734 28.8203C61.262 31.986 61.9758 35.0782 62.4033 38.0938L62.751 40.5488L60.5508 41.6914C57.2867 43.3862 54.4604 45.2774 52.0508 47.3525C49.6154 49.4499 47.7692 51.5391 46.4473 53.6045L43.5381 58.1504L40.5742 53.6406C39.2531 51.6302 37.4014 49.5625 34.9522 47.4531C32.5296 45.3668 29.6861 43.4348 26.4023 41.668L24.251 40.5098L24.5967 38.0908C25.0267 35.0804 25.7386 31.9904 26.7236 28.8242C27.7049 25.6702 28.8961 22.5723 30.2949 19.5312C31.6974 16.4822 33.2943 13.5513 35.0859 10.7402C36.88 7.92542 38.8072 5.34001 40.8701 2.99219L43.499 0L46.1289 2.99219ZM43.5 10.8604C42.6388 12.0134 41.8018 13.2271 40.9893 14.502C39.3699 17.0426 37.925 19.6936 36.6543 22.4561C35.3799 25.2267 34.2983 28.0425 33.4082 30.9033C32.7833 32.912 32.2906 34.8597 31.9229 36.7461C34.7132 38.3947 37.2491 40.1932 39.5195 42.1484C40.9717 43.399 42.2905 44.6793 43.4678 45.9893C44.662 44.6358 46.0037 43.3231 47.4834 42.0488C49.7528 40.0945 52.2852 38.3178 55.0703 36.7129C54.7043 34.837 54.2146 32.9017 53.5918 30.9072C52.6985 28.0466 51.6158 25.2288 50.3428 22.4531C49.0754 19.6897 47.6328 17.0402 46.0147 14.5039C45.2014 13.2291 44.3628 12.0146 43.5 10.8604Z" fill="#485C46"/>
</svg>
