<?xml version="1.0" encoding="utf-8"?><svg xmlns="http://www.w3.org/2000/svg" xmlns:xlink="http://www.w3.org/1999/xlink"><symbol viewBox="0 0 16 16" id="--icon-arrow"><path d="M8 0a8 8 0 1 0 8 8 8.008 8.008 0 0 0-8-8Zm0 14.77A6.77 6.77 0 1 1 14.77 8 6.776 6.776 0 0 1 8 14.77Zm2.281-7.205a.615.615 0 0 1 0 .87l-3.076 3.077a.616.616 0 0 1-.871-.87L8.976 8 6.334 5.358a.616.616 0 1 1 .87-.87l3.077 3.077Z"/></symbol><symbol viewBox="0 0 16 16" id="--icon-arrow-nav"><path d="M14.452 8A6.451 6.451 0 1 0 1.549 8a6.451 6.451 0 0 0 12.903 0ZM16 8A8 8 0 1 1 0 8a8 8 0 0 1 16 0Z"/><path d="M10.704 6.369a.774.774 0 0 1 1.095 1.095l-3.251 3.252a.774.774 0 0 1-1.095 0L4.2 7.464a.774.774 0 1 1 1.095-1.095l2.703 2.703 2.705-2.703Z"/></symbol><symbol viewBox="0 0 14 15" id="--icon-cart"><path fill-rule="evenodd" d="M0 .833C0 .613.092.4.256.244A.898.898 0 0 1 .875 0h1.313c.2 0 .396.066.552.187.156.12.263.289.304.476L3.447 2.5h9.678c.13 0 .258.028.376.08a.87.87 0 0 1 .303.228.796.796 0 0 1 .178.696l-1.094 5a.828.828 0 0 1-.305.476.903.903 0 0 1-.552.187H4.904l.182.833h6.289c.557 0 1.1.17 1.55.483.449.313.782.755.95 1.26.17.506.164 1.05-.013 1.553-.178.503-.518.94-.973 1.246-.455.306-1 .466-1.558.458a2.71 2.71 0 0 1-1.541-.506 2.503 2.503 0 0 1-.93-1.275 2.387 2.387 0 0 1 .039-1.552H6.85c.17.46.196.957.074 1.43a2.478 2.478 0 0 1-.763 1.234 2.678 2.678 0 0 1-1.35.633 2.745 2.745 0 0 1-1.491-.176 2.595 2.595 0 0 1-1.146-.927 2.414 2.414 0 0 1-.424-1.374c.002-.488.154-.964.437-1.37a2.6 2.6 0 0 1 1.155-.917L1.475 1.667h-.6a.898.898 0 0 1-.619-.244A.814.814 0 0 1 0 .833Z" clip-rule="evenodd"/></symbol><symbol viewBox="0 0 88 88" id="--icon-lessons"><path d="M34.972 76.43a3.5 3.5 0 0 1 4.76-1.359l9.23 5.13h19.433l.015-.002.135-.005c.134-.008.344-.024.602-.06a7.608 7.608 0 0 0 1.785-.451c.607-.245 1.007-.533 1.24-.815.183-.22.392-.583.392-1.335 0-.909-.426-1.915-1.622-3.075-1.214-1.178-2.97-2.252-4.946-3.17-1.943-.903-3.918-1.574-5.427-2.021a42.088 42.088 0 0 0-2.279-.608l-.115-.025-.024-.006a3.5 3.5 0 0 1-2.446-1.947l-3.823-8.22a3.5 3.5 0 0 1 6.348-2.952l3.117 6.703c.36.097.767.211 1.212.343 1.713.508 4.035 1.292 6.387 2.386 2.321 1.078 4.862 2.545 6.87 4.492 2.026 1.965 3.748 4.67 3.748 8.1 0 2.331-.746 4.282-1.997 5.795-1.2 1.453-2.713 2.321-4.017 2.847-1.31.528-2.572.776-3.47.897a14.992 14.992 0 0 1-1.482.125c-.045.002-.083.002-.113.002l-.039.001h-.025c-.002 0-.003-.03-.003-3.5v3.5H48.057c-.595 0-1.18-.151-1.7-.44L36.33 81.19a3.5 3.5 0 0 1-1.36-4.76Z"/><path d="M48.405 67.381a3.5 3.5 0 1 1 3.758 5.905L39.91 81.083a3.521 3.521 0 0 1-.179.108L29.706 86.76c-.52.289-1.105.44-1.7.44h-9.223v-3.5c0 3.5-.002 3.5-.003 3.5h-.064l-.113-.003a15.02 15.02 0 0 1-1.481-.125c-.9-.12-2.16-.369-3.47-.897-1.304-.526-2.817-1.394-4.017-2.847-1.251-1.513-1.997-3.464-1.997-5.795 0-3.43 1.722-6.135 3.748-8.1 2.008-1.947 4.55-3.414 6.872-4.493 2.353-1.093 4.675-1.877 6.388-2.385.444-.132.851-.246 1.211-.343l3.114-6.702a3.5 3.5 0 0 1 6.35 2.95l-3.82 8.22a3.501 3.501 0 0 1-2.447 1.949l-.023.005-.115.025-.484.116a42.1 42.1 0 0 0-1.796.492c-1.51.447-3.485 1.118-5.428 2.021-1.976.918-3.733 1.992-4.948 3.17-1.196 1.16-1.622 2.166-1.623 3.075 0 .752.21 1.114.393 1.335.233.282.632.57 1.24.815.6.242 1.25.38 1.785.452a8.003 8.003 0 0 0 .737.064l.014.001H27.1l9.134-5.075 12.172-7.744Z"/><path d="M44.983 26.732c.78 0 1.785.038 2.952.19a22.251 22.251 0 0 1 8.42 2.894c6.044 3.55 11.936 10.712 15.07 24.482 2.395.76 5.196 1.508 7.63 2.112a213.58 213.58 0 0 0 4.98 1.173 26.95 26.95 0 0 0 .379.083l.02.004h.003a3.5 3.5 0 0 1-1.474 6.844h-.002l-.007-.002-.023-.005a19.614 19.614 0 0 1-.409-.09c-.279-.062-.682-.151-1.182-.266-1.001-.228-2.396-.555-3.973-.947-3.122-.775-7.084-1.837-10.123-2.924a3.5 3.5 0 0 1-2.254-2.612c-2.723-13.687-8.009-19.366-12.18-21.816-4.29-2.518-8.057-2.087-9.21-2.087-1.153 0-4.92-.431-9.21 2.087-4.17 2.45-9.455 8.13-12.178 21.816a3.5 3.5 0 0 1-2.252 2.611c-3.04 1.09-7.005 2.152-10.126 2.927a217.949 217.949 0 0 1-5.156 1.212l-.324.07-.085.019-.023.006H4.237a3.5 3.5 0 1 1-1.472-6.842l.004-.001.019-.004.076-.017.303-.066c.265-.059.653-.145 1.136-.256.969-.22 2.32-.536 3.845-.915 2.433-.604 5.233-1.352 7.627-2.113 3.134-13.771 9.028-20.934 15.071-24.483a22.252 22.252 0 0 1 8.42-2.893 22.762 22.762 0 0 1 2.953-.19c.388 0 .719.01.971.018l.306.01.104.004.106-.003.305-.011c.253-.009.583-.019.972-.019Zm4.029-14.32a5.411 5.411 0 1 0-10.822 0 5.411 5.411 0 0 0 10.822 0Zm7 0a12.412 12.412 0 1 1-24.824 0 12.412 12.412 0 0 1 24.823 0Z"/></symbol><symbol viewBox="0 0 108 88" id="--icon-room"><path d="M30.075 43.6V27.05H18.537c-2.287 0-4.178.002-5.722-.104-1.576-.107-3.046-.337-4.463-.925A13.524 13.524 0 0 1 1.028 18.7l-.106-.266c-.51-1.336-.718-2.72-.818-4.197C-.002 12.692 0 10.801 0 8.513V3.5a3.5 3.5 0 0 1 7 0v5.013c0 2.383.002 3.996.087 5.247.083 1.22.233 1.839.408 2.26a6.53 6.53 0 0 0 3.534 3.535l.17.064c.417.147 1.024.271 2.091.344.512.035 1.085.053 1.747.065v-3.997A11.019 11.019 0 0 1 25.51 5.026l.547-.013h42.605c4.628 0 8.45-.008 11.467.398 3.118.42 5.894 1.337 8.121 3.564 2.227 2.226 3.145 5.002 3.564 8.12.122.907.205 1.885.264 2.936.72-.012 1.335-.03 1.882-.068 1.22-.083 1.839-.234 2.26-.408l.295-.131a6.524 6.524 0 0 0 3.239-3.404c.175-.421.326-1.04.409-2.26.085-1.251.087-2.864.087-5.247V3.5a3.5 3.5 0 1 1 7 0v5.013c0 2.288.002 4.179-.104 5.723-.107 1.576-.337 3.046-.924 4.463a13.537 13.537 0 0 1-7.324 7.323c-1.417.588-2.887.817-4.462.924-.675.046-1.415.07-2.226.083 0 .501.003 1.012.003 1.534V43.6c0 4.627.007 8.45-.398 11.466-.42 3.119-1.338 5.895-3.565 8.121-1.725 1.725-3.78 2.662-6.067 3.193-.012 3.422-.07 6.334-.394 8.736-.42 3.118-1.338 5.894-3.564 8.121-2.227 2.227-5.002 3.145-8.12 3.565-3.017.406-6.84.398-11.467.398h-20.05c-4.628 0-8.45.008-11.467-.398-3.118-.42-5.894-1.338-8.121-3.565-2.227-2.227-3.145-5.003-3.565-8.12-.405-3.017-.398-6.84-.398-11.467V38.588a3.5 3.5 0 0 1 7 0V63.65c0 4.826.008 8.092.336 10.534.315 2.34.866 3.394 1.576 4.104.71.71 1.765 1.261 4.106 1.576 2.441.329 5.707.336 10.533.336h20.05c4.825 0 8.091-.007 10.533-.336 2.34-.315 3.394-.865 4.104-1.576.71-.71 1.262-1.764 1.577-4.104.243-1.81.31-4.073.328-7.088-1.959.053-4.131.054-6.518.054H53.625c-4.628 0-8.45.008-11.467-.398-3.118-.42-5.894-1.338-8.12-3.564-2.228-2.227-3.145-5.003-3.564-8.122-.406-3.017-.399-6.839-.399-11.466Zm-8.038-23.55h8.038V16.03a4.02 4.02 0 0 0-8.038 0v4.019ZM37.075 43.6c0 4.825.008 8.091.336 10.533.315 2.34.866 3.395 1.576 4.105.71.71 1.765 1.262 4.105 1.577 2.441.328 5.707.335 10.533.335h15.037c4.826 0 8.092-.007 10.533-.335 2.34-.315 3.395-.866 4.106-1.577.71-.71 1.261-1.765 1.576-4.105.328-2.442.336-5.708.336-10.533V28.562c0-4.825-.008-8.091-.336-10.533-.315-2.34-.866-3.394-1.576-4.104-.71-.71-1.765-1.261-4.106-1.576-2.441-.329-5.707-.336-10.533-.336h-32.35c.498 1.268.763 2.63.763 4.018V43.6Z"/></symbol><symbol viewBox="0 0 122 88" id="--icon-rug"><path d="M69.96 0a29.563 29.563 0 0 1 27.09 17.51l.218.5.004.01c2.079 4.941 2.37 11.395-1.415 16.312l-.003.005a18.141 18.141 0 0 1-3.525 3.462l-.124.088-38 25.84a3.5 3.5 0 0 1-3.937-5.79l37.916-25.782a11.12 11.12 0 0 0 2.13-2.097c1.767-2.3 1.954-5.88.506-9.323A22.566 22.566 0 0 0 69.972 7h-.013a22.689 22.689 0 0 0-12.525 3.736l-40.498 28.6a3.5 3.5 0 1 1-4.037-5.718l40.555-28.64.088-.06A29.686 29.686 0 0 1 69.947 0h.012Z"/><path d="M14.572 32.4c4.958-3.238 12.828-4.565 20.434-3.095 7.834 1.515 15.849 6.082 20.532 15.202 2.312 4.5 3.048 8.634 2.364 12.325-.687 3.704-2.725 6.538-5.175 8.562-2.42 2-5.294 3.266-7.938 3.95-2.584.67-5.314.874-7.48.383h-.003c-11.779-2.678-14.41-12.61-14.41-17.505a3.5 3.5 0 0 1 7 0c0 3.079 1.597 9.002 8.958 10.678.718.163 2.252.168 4.182-.332 1.869-.483 3.759-1.352 5.231-2.57 1.442-1.19 2.42-2.654 2.752-4.442.334-1.802.089-4.356-1.707-7.852-3.53-6.873-9.512-10.343-15.634-11.526-6.283-1.215-12.256.065-15.353 2.129a3.533 3.533 0 0 1-.128.08c-2.04 1.235-5.264 3.951-7.736 7.738-2.368 3.627-3.924 8.037-3.337 12.977l.064.48.023.205c.274 3.173 1.707 8.175 5.085 12.412 3.275 4.108 8.445 7.6 16.588 8h56.41c2.445-.199 3.543-.457 4.416-.84.956-.419 1.87-1.075 3.889-2.62 5.34-4.803 14.203-13.574 19.328-19.314l.004-.005c.622-.695 1.021-1.137 1.32-1.585.271-.404.31-.602.318-.682.063-.702-.036-1.031-.083-1.144-.034-.083-.082-.163-.246-.278-.488-.339-1.6-.697-3.771-.833-2.08-.13-4.49-.034-7.25.043-2.656.074-5.594.126-8.342-.172a3.5 3.5 0 1 1 .755-6.959c2.216.24 4.714.209 7.392.134 2.575-.072 5.4-.187 7.882-.032 2.391.15 5.171.572 7.329 2.072 1.158.805 2.123 1.91 2.718 3.345.581 1.404.728 2.926.585 4.474v.01c-.291 3.065-2.487 5.265-3.39 6.273h.001c-5.349 5.991-14.476 15.018-19.973 19.951-.067.06-.136.118-.208.173-1.925 1.475-3.549 2.727-5.446 3.56-1.982.869-4.048 1.2-6.798 1.418a3.49 3.49 0 0 1-.276.011H28.786c-.055 0-.11-.001-.166-.004-10.32-.486-17.338-5.04-21.797-10.633C2.492 71.13.64 64.817.247 60.488c-1.022-7.21 1.26-13.452 4.352-18.19 3.08-4.718 7.091-8.154 9.973-9.899Z"/></symbol><symbol viewBox="0 0 40 40" id="--icon-slider-arrow"><path d="M20 0C8.972 0 0 8.972 0 20s8.972 20 20 20 20-8.972 20-20S31.028 0 20 0Zm0 3.077A16.9 16.9 0 0 1 36.923 20 16.9 16.9 0 0 1 20 36.923 16.9 16.9 0 0 1 3.077 20 16.9 16.9 0 0 1 20 3.077Zm1.108 7.068-2.216 2.163 6.154 6.154H9.231v3.076h15.815l-6.154 6.154 2.216 2.163 8.747-8.749 1.108-1.108-1.108-1.107-8.749-8.748.002.002Z"/></symbol><symbol viewBox="0 0 87 90" id="--icon-spa"><path d="M3.849 37.309c7.557.755 14.095 2.142 19.546 4.222 5.524 2.108 10.142 5.141 13.74 9.154 3.6 4.014 6.123 8.962 7.643 14.73 1.5 5.688 2.218 12.403 2.221 20.086l.002 3.977-3.944-.504c-6.604-.843-12.595-2.54-17.931-5.136-5.333-2.594-9.902-6.008-13.665-10.248-3.754-4.23-6.603-9.12-8.554-14.638C.95 53.415-.003 47.347 0 40.79l.002-3.865 3.847.385Zm83.15 3.46c.071 11.237-2.949 21.107-9.169 29.436-6.212 8.318-14.718 13.992-25.34 17.056l-4.34 1.252-.13-4.515c-.13-4.567-.47-8.763-1.016-12.59-.538-3.779-1.377-7.323-2.507-10.641l-.514-1.508.8-1.378c3.441-5.93 8.184-10.753 14.171-14.453 6.225-3.847 14.467-5.79 24.423-6.135l3.599-.125.023 3.6Zm-79.864 3.98c.298 4.31 1.096 8.26 2.372 11.87 1.663 4.705 4.062 8.801 7.19 12.324 3.117 3.513 6.933 6.382 11.492 8.6 3.5 1.703 7.405 2.986 11.73 3.836-.214-5.487-.861-10.204-1.91-14.18-1.28-4.862-3.334-8.772-6.086-11.842-2.754-3.07-6.391-5.518-11.025-7.286-3.802-1.45-8.378-2.569-13.763-3.322Zm72.757-.241c-7.431.626-13.119 2.316-17.257 4.874-4.587 2.835-8.24 6.399-11 10.705a66.468 66.468 0 0 1 2.299 10.333c.39 2.746.677 5.64.868 8.679 7.255-2.833 13.027-7.2 17.42-13.082 4.548-6.091 7.128-13.223 7.67-21.51ZM46.129 2.992c2.065 2.35 3.993 4.934 5.787 7.746a72.623 72.623 0 0 1 4.79 8.796 78.111 78.111 0 0 1 3.567 9.286c.989 3.166 1.703 6.258 2.13 9.274l.348 2.455-2.2 1.142c-3.264 1.695-6.09 3.586-8.5 5.661-2.436 2.098-4.282 4.187-5.604 6.253l-2.909 4.545-2.964-4.51c-1.32-2.01-3.173-4.078-5.622-6.187-2.422-2.086-5.266-4.018-8.55-5.785l-2.151-1.158.346-2.42c.43-3.01 1.142-6.1 2.127-9.266a76.874 76.874 0 0 1 3.57-9.293c1.403-3.049 3-5.98 4.792-8.79 1.794-2.816 3.721-5.401 5.784-7.749L43.5 0l2.63 2.992ZM43.5 10.86a59.686 59.686 0 0 0-2.51 3.642 66.409 66.409 0 0 0-4.336 7.954 69.872 69.872 0 0 0-3.246 8.447 55.296 55.296 0 0 0-1.485 5.843c2.79 1.649 5.326 3.447 7.597 5.402a43.198 43.198 0 0 1 3.948 3.841 41.167 41.167 0 0 1 4.015-3.94c2.27-1.955 4.802-3.731 7.587-5.336a54.498 54.498 0 0 0-1.478-5.806 71.112 71.112 0 0 0-3.25-8.454 65.626 65.626 0 0 0-4.327-7.95A59.814 59.814 0 0 0 43.5 10.86Z"/></symbol></svg>