<?xml version="1.0" encoding="utf-8"?><svg xmlns="http://www.w3.org/2000/svg" xmlns:xlink="http://www.w3.org/1999/xlink"><symbol viewBox="0 0 16 16" id="--icon-arrow"><path d="M8 0a8 8 0 1 0 8 8 8.008 8.008 0 0 0-8-8Zm0 14.77A6.77 6.77 0 1 1 14.77 8 6.776 6.776 0 0 1 8 14.77Zm2.281-7.205a.615.615 0 0 1 0 .87l-3.076 3.077a.616.616 0 0 1-.871-.87L8.976 8 6.334 5.358a.616.616 0 1 1 .87-.87l3.077 3.077Z"/></symbol><symbol viewBox="0 0 14 15" id="--icon-cart"><path fill-rule="evenodd" clip-rule="evenodd" d="M0 .833A.833.833 0 0 1 .833 0h1.25A.833.833 0 0 1 2.9.663L3.283 2.5H12.5a.833.833 0 0 1 .816 1.003l-1.042 5a.833.833 0 0 1-.816.664H4.671l.173.833h5.99a2.5 2.5 0 1 1-2.359 1.667h-1.95a2.5 2.5 0 1 1-3.34-1.467l-1.78-8.533H.833A.833.833 0 0 1 0 .833Z"/></symbol><symbol viewBox="0 0 40 40" id="--icon-slider-arrow"><path d="M20 0C8.972 0 0 8.972 0 20s8.972 20 20 20 20-8.972 20-20S31.028 0 20 0Zm0 3.077A16.9 16.9 0 0 1 36.923 20 16.9 16.9 0 0 1 20 36.923 16.9 16.9 0 0 1 3.077 20 16.9 16.9 0 0 1 20 3.077Zm1.108 7.068-2.216 2.163 6.154 6.154H9.231v3.076h15.815l-6.154 6.154 2.216 2.163 8.747-8.749 1.108-1.108-1.108-1.107-8.749-8.748.002.002Z"/></symbol></svg>