<?xml version="1.0" encoding="utf-8"?><svg xmlns="http://www.w3.org/2000/svg" xmlns:xlink="http://www.w3.org/1999/xlink"><symbol viewBox="0 0 16 16" id="--icon-arrow"><path d="M8 0a8 8 0 1 0 8 8 8.008 8.008 0 0 0-8-8Zm0 14.77A6.77 6.77 0 1 1 14.77 8 6.776 6.776 0 0 1 8 14.77Zm2.281-7.205a.615.615 0 0 1 0 .87l-3.076 3.077a.616.616 0 0 1-.871-.87L8.976 8 6.334 5.358a.616.616 0 1 1 .87-.87l3.077 3.077Z"/></symbol><symbol viewBox="0 0 16 16" id="--icon-arrow-nav"><path d="M14.452 8A6.451 6.451 0 1 0 1.549 8a6.451 6.451 0 0 0 12.903 0ZM16 8A8 8 0 1 1 0 8a8 8 0 0 1 16 0Z"/><path d="M10.704 6.369a.774.774 0 0 1 1.095 1.095l-3.251 3.252a.774.774 0 0 1-1.095 0L4.2 7.464a.774.774 0 1 1 1.095-1.095l2.703 2.703 2.705-2.703Z"/></symbol><symbol viewBox="0 0 14 15" id="--icon-cart"><path fill-rule="evenodd" d="M0 .833C0 .613.092.4.256.244A.898.898 0 0 1 .875 0h1.313c.2 0 .396.066.552.187.156.12.263.289.304.476L3.447 2.5h9.678c.13 0 .258.028.376.08a.87.87 0 0 1 .303.228.796.796 0 0 1 .178.696l-1.094 5a.828.828 0 0 1-.305.476.903.903 0 0 1-.552.187H4.904l.182.833h6.289c.557 0 1.1.17 1.55.483.449.313.782.755.95 1.26.17.506.164 1.05-.013 1.553-.178.503-.518.94-.973 1.246-.455.306-1 .466-1.558.458a2.71 2.71 0 0 1-1.541-.506 2.503 2.503 0 0 1-.93-1.275 2.387 2.387 0 0 1 .039-1.552H6.85c.17.46.196.957.074 1.43a2.478 2.478 0 0 1-.763 1.234 2.678 2.678 0 0 1-1.35.633 2.745 2.745 0 0 1-1.491-.176 2.595 2.595 0 0 1-1.146-.927 2.414 2.414 0 0 1-.424-1.374c.002-.488.154-.964.437-1.37a2.6 2.6 0 0 1 1.155-.917L1.475 1.667h-.6a.898.898 0 0 1-.619-.244A.814.814 0 0 1 0 .833Z" clip-rule="evenodd"/></symbol><symbol viewBox="0 0 40 40" id="--icon-slider-arrow"><path d="M20 0C8.972 0 0 8.972 0 20s8.972 20 20 20 20-8.972 20-20S31.028 0 20 0Zm0 3.077A16.9 16.9 0 0 1 36.923 20 16.9 16.9 0 0 1 20 36.923 16.9 16.9 0 0 1 3.077 20 16.9 16.9 0 0 1 20 3.077Zm1.108 7.068-2.216 2.163 6.154 6.154H9.231v3.076h15.815l-6.154 6.154 2.216 2.163 8.747-8.749 1.108-1.108-1.108-1.107-8.749-8.748.002.002Z"/></symbol></svg>