<svg width="14" height="15" viewBox="0 0 14 15" fill="none" xmlns="http://www.w3.org/2000/svg">
<path fill-rule="evenodd" clip-rule="evenodd" d="M0 0.833333C0 0.61232 0.0921872 0.400358 0.256281 0.244078C0.420375 0.0877973 0.642934 3.53794e-10 0.874998 3.53793e-10H2.1875C2.38857 -5.57452e-06 2.58351 0.0659438 2.73952 0.186753C2.89554 0.307563 3.0031 0.475861 3.04412 0.663333L3.44662 2.5H13.125C13.255 2.5 13.3834 2.5276 13.5009 2.58081C13.6183 2.63402 13.7218 2.7115 13.8039 2.8076C13.8859 2.9037 13.9445 3.01601 13.9752 3.13636C14.0059 3.25671 14.0081 3.38208 13.9816 3.50333L12.8879 8.50333C12.8468 8.69081 12.7393 8.8591 12.5833 8.97991C12.4272 9.10072 12.2323 9.16667 12.0312 9.16667H4.90437L5.08637 10H11.375C11.9321 10.0003 12.4748 10.1694 12.9243 10.4829C13.3739 10.7963 13.707 11.2379 13.8756 11.7437C14.0441 12.2494 14.0394 12.7932 13.8619 13.2962C13.6845 13.7992 13.3436 14.2354 12.8886 14.5416C12.4336 14.8479 11.8881 15.0083 11.331 14.9997C10.7739 14.9911 10.2341 14.8138 9.78979 14.4937C9.34546 14.1735 9.01963 13.727 8.85944 13.2188C8.69925 12.7105 8.71301 12.167 8.89873 11.6667H6.85124C7.02157 12.1264 7.04703 12.6236 6.9245 13.0969C6.80197 13.5703 6.53678 13.9992 6.16158 14.3309C5.78638 14.6625 5.31755 14.8825 4.81278 14.9636C4.30801 15.0448 3.78935 14.9836 3.32062 14.7876C2.85189 14.5917 2.45356 14.2694 2.17465 13.8606C1.89574 13.4518 1.74843 12.9742 1.75085 12.4867C1.75327 11.9992 1.90531 11.523 2.18826 11.1167C2.47121 10.7104 2.87272 10.3918 3.34337 10.2L1.47525 1.66667H0.874998C0.642934 1.66667 0.420375 1.57887 0.256281 1.42259C0.0921872 1.26631 0 1.05435 0 0.833333Z" fill="white"/>
</svg>
