<svg width="40" height="40" viewBox="0 0 40 40" fill="none" xmlns="http://www.w3.org/2000/svg">
<path d="M20 0C8.97231 0 0 8.97231 0 20C0 31.0277 8.97231 40 20 40C31.0277 40 40 31.0277 40 20C40 8.97231 31.0277 0 20 0ZM20 3.07692C29.3646 3.07692 36.9231 10.6354 36.9231 20C36.9231 29.3646 29.3646 36.9231 20 36.9231C10.6354 36.9231 3.07692 29.3646 3.07692 20C3.07692 10.6354 10.6354 3.07692 20 3.07692ZM21.1077 10.1446L18.8923 12.3077L25.0462 18.4615H9.23077V20V21.5385H25.0462L18.8923 27.6923L21.1077 29.8554L29.8554 21.1062L30.9631 19.9985L29.8554 18.8908L21.1062 10.1431L21.1077 10.1446Z" fill="#485C46"/>
</svg>
